#!OML:ASF H:\BabyWalks\Project 1\Capture day 1\Session 1\baby.ASF
:FULLY-SPECIFIED
:DEGREES
332
root -14.3588 15.9659 -2.27832 104.471 -85.2272 -122.658
lowerback 12.6655 0.16765 0.93906
upperback 3.11576 0.248327 0.747961
thorax -3.82813 0.0616903 0.215236
lowerneck -6.37564 -0.125661 5.0786
upperneck 5.88563 -0.31997 -4.63061
head 3.03171 -0.215219 -2.44712
rclavicle 6.31141e-015 1.03368e-014
rhumerus 20.6828 -6.20829 -65.19
rradius 67.6312
rwrist 21.4664
rhand 23.0555 -24.2928
rfingers 7.12502
rthumb 47.3702 -46.7942
lclavicle 6.31141e-015 1.03368e-014
lhumerus 20.8859 0.735156 60.2183
lradius 73.5314
lwrist -6.29061
lhand 27.1934 32.7319
lfingers 7.12502
lthumb 51.1669 53.3197
rfemur 2.81571 -12.3538 11.4402
rtibia 54.1849
rfoot -32.1888 -9.91725
rtoes -12.9216
lfemur 1.67039 11.8645 1.68294
ltibia 53.0303
lfoot -35.9489 -8.45796
ltoes -13.1991
333
root -14.3573 15.97 -2.27524 104.358 -85.3221 -122.532
lowerback 12.6705 0.176408 0.892542
upperback 3.11885 0.252833 0.71939
thorax -3.82773 0.0642948 0.210947
lowerneck -6.53461 -0.11698 4.90585
upperneck 6.0134 -0.308636 -4.45424
head 3.10378 -0.20825 -2.35884
rclavicle -1.2921e-015 -1.35174e-014
rhumerus 20.7026 -6.20594 -65.1485
rradius 67.6258
rwrist 21.4473
rhand 23.0855 -24.3826
rfingers 7.12502
rthumb 47.3979 -46.8715
lclavicle -1.2921e-015 -1.35174e-014
lhumerus 20.9591 0.663058 60.2625
lradius 73.5428
lwrist -6.2748
lhand 27.177 32.7178
lfingers 7.12502
lthumb 51.152 53.314
rfemur 2.82129 -12.4022 11.315
rtibia 54.1718
rfoot -32.1909 -9.87035
rtoes -12.9437
lfemur 1.64121 11.8533 1.5575
ltibia 53.0347
lfoot -35.9406 -8.46256
ltoes -13.1095
334
root -14.3571 15.9696 -2.27384 104.204 -85.3581 -122.41
lowerback 12.7106 0.172658 0.860219
upperback 3.11026 0.244175 0.713914
thorax -3.8588 0.0601644 0.2248
lowerneck -6.52723 -0.0929153 4.89665
upperneck 6.05498 -0.27903 -4.38917
head 3.11763 -0.191127 -2.33426
rclavicle 1.39149e-015 -7.15625e-015
rhumerus 20.6743 -6.13454 -65.1321
rradius 67.6266
rwrist 21.433
rhand 23.0775 -24.3595
rfingers 7.12502
rthumb 47.3905 -46.8517
lclavicle 1.39149e-015 -7.15625e-015
lhumerus 20.9508 0.624536 60.3035
lradius 73.5765
lwrist -6.24959
lhand 27.1802 32.7511
lfingers 7.12502
lthumb 51.1549 53.3456
rfemur 2.8679 -12.4119 11.2586
rtibia 54.1617
rfoot -32.1893 -9.8425
rtoes -12.9061
lfemur 1.66655 11.8349 1.51953
ltibia 53.0333
lfoot -35.9501 -8.45513
ltoes -13.1281
335
root -14.3556 15.9691 -2.273 104.047 -85.2937 -122.269
lowerback 12.7338 0.173199 0.910141
upperback 3.11726 0.252103 0.741605
thorax -3.86401 0.0634198 0.224283
lowerneck -6.58579 -0.0820262 4.82591
upperneck 6.1048 -0.26396 -4.32257
head 3.14569 -0.183222 -2.29945
rclavicle -4.02539e-015 9.93923e-015
rhumerus 20.6953 -6.07269 -65.1059
rradius 67.6153
rwrist 21.4466
rhand 23.0852 -24.3435
rfingers 7.12502
rthumb 47.3976 -46.8325
lclavicle -4.02539e-015 9.93923e-015
lhumerus 20.9655 0.594264 60.3352
lradius 73.5989
lwrist -6.21627
lhand 27.1435 32.6917
lfingers 7.12502
lthumb 51.1215 53.305
rfemur 2.87938 -12.3903 11.3377
rtibia 54.1438
rfoot -32.1793 -9.85708
rtoes -12.9281
lfemur 1.67389 11.8486 1.60113
ltibia 53.033
lfoot -35.9386 -8.47917
ltoes -13.0951
336
root -14.3538 15.9713 -2.27139 104.127 -85.3115 -122.355
lowerback 12.7521 0.167234 0.872974
upperback 3.10836 0.240277 0.749625
thorax -3.8836 0.0578575 0.255483
lowerneck -6.48861 -0.0763334 4.92277
upperneck 6.03167 -0.256194 -4.41638
head 3.10389 -0.179918 -2.34643
rclavicle 8.44835e-016 7.55382e-015
rhumerus 20.7016 -5.94577 -65.0624
rradius 67.6144
rwrist 21.4249
rhand 23.1019 -24.4
rfingers 7.12502
rthumb 47.413 -46.8821
lclavicle 8.44835e-016 7.55382e-015
lhumerus 20.9521 0.596409 60.3731
lradius 73.6267
lwrist -6.21469
lhand 27.1157 32.6691
lfingers 7.12502
lthumb 51.0962 53.2967
rfemur 2.88521 -12.3458 11.332
rtibia 54.1298
rfoot -32.1644 -9.86362
rtoes -12.8692
lfemur 1.68077 11.8402 1.56715
ltibia 53.0341
lfoot -35.9491 -8.44263
ltoes -13.1799
337
root -14.3525 15.9693 -2.2695 104.003 -85.2856 -122.246
lowerback 12.7556 0.172611 0.920973
upperback 3.1203 0.252985 0.7499
thorax -3.87271 0.0635887 0.226682
lowerneck -6.49579 -0.0825486 4.93758
upperneck 6.02213 -0.264352 -4.44529
head 3.10191 -0.184787 -2.35932
rclavicle 1.49089e-015 1.66979e-014
rhumerus 20.6865 -5.90413 -65.031
rradius 67.6051
rwrist 21.4235
rhand 23.0825 -24.3878
rfingers 7.12502
rthumb 47.3951 -46.878
lclavicle 1.49089e-015 1.66979e-014
lhumerus 20.9879 0.541639 60.4129
lradius 73.6416
lwrist -6.20731
lhand 27.1346 32.6583
lfingers 7.12502
lthumb 51.1134 53.2763
rfemur 2.89913 -12.3819 11.3339
rtibia 54.1223
rfoot -32.1518 -9.84527
rtoes -12.9402
lfemur 1.6838 11.8472 1.60221
ltibia 53.046
lfoot -35.946 -8.45777
ltoes -13.1886
338
root -14.3509 15.9685 -2.26896 104.026 -85.2413 -122.296
lowerback 12.7844 0.175508 0.932818
upperback 3.13032 0.259002 0.777526
thorax -3.87803 0.066112 0.247879
lowerneck -6.46542 -0.076735 4.99293
upperneck 5.99398 -0.258497 -4.48065
head 3.08749 -0.18165 -2.38048
rclavicle 3.23025e-015 -1.19271e-015
rhumerus 20.7071 -5.81254 -64.9889
rradius 67.5837
rwrist 21.426
rhand 23.111 -24.3678
rfingers 7.12502
rthumb 47.4214 -46.8462
lclavicle 3.23025e-015 -1.19271e-015
lhumerus 21.0542 0.531965 60.465
lradius 73.6012
lwrist -6.19758
lhand 27.1085 32.737
lfingers 7.12502
lthumb 51.0896 53.3683
rfemur 2.91274 -12.3542 11.3827
rtibia 54.117
rfoot -32.1384 -9.84228
rtoes -12.8784
lfemur 1.7084 11.8543 1.65967
ltibia 53.0452
lfoot -35.9324 -8.49568
ltoes -13.1196
339
root -14.3484 15.9709 -2.26601 104.051 -85.3096 -122.313
lowerback 12.7988 0.174191 0.884075
upperback 3.13416 0.250093 0.758247
thorax -3.88206 0.0619905 0.256658
lowerneck -6.58149 -0.0655385 4.89904
upperneck 6.07964 -0.243963 -4.39449
head 3.13848 -0.174256 -2.33608
rclavicle 9.93923e-017 3.18055e-014
rhumerus 20.7276 -5.74757 -64.9639
rradius 67.5774
rwrist 21.4176
rhand 23.1126 -24.3634
rfingers 7.12502
rthumb 47.4229 -46.8411
lclavicle 9.93923e-017 3.18055e-014
lhumerus 21.0465 0.532513 60.5364
lradius 73.6569
lwrist -6.20885
lhand 27.1603 32.6588
lfingers 7.12502
lthumb 51.1368 53.2635
rfemur 2.90464 -12.3425 11.3149
rtibia 54.1196
rfoot -32.136 -9.88032
rtoes -12.9392
lfemur 1.68776 11.8516 1.56268
ltibia 53.0477
lfoot -35.9311 -8.49411
ltoes -13.0784
340
root -14.3472 15.9708 -2.26337 104.129 -85.3605 -122.398
lowerback 12.7929 0.171242 0.843097
upperback 3.13815 0.240153 0.745541
thorax -3.87485 0.0573893 0.268091
lowerneck -6.52903 -0.062569 4.9218
upperneck 6.04435 -0.239523 -4.40983
head 3.11684 -0.171709 -2.34403
rclavicle 2.78299e-015 1.23246e-014
rhumerus 20.7265 -5.65445 -64.9251
rradius 67.5856
rwrist 21.3876
rhand 23.0982 -24.3781
rfingers 7.12502
rthumb 47.4096 -46.8617
lclavicle 2.78299e-015 1.23246e-014
lhumerus 21.0635 0.518747 60.5731
lradius 73.6601
lwrist -6.15817
lhand 27.1433 32.6767
lfingers 7.12502
lthumb 51.1213 53.2902
rfemur 2.91456 -12.3527 11.237
rtibia 54.1178
rfoot -32.1252 -9.86455
rtoes -12.9657
lfemur 1.69027 11.8369 1.48532
ltibia 53.0441
lfoot -35.9195 -8.46992
ltoes -13.0967
341
root -14.3446 15.9682 -2.26301 104.231 -85.3222 -122.518
lowerback 12.8293 0.170689 0.849243
upperback 3.13906 0.240949 0.762692
thorax -3.89382 0.0574708 0.282398
lowerneck -6.52576 -0.0555207 4.93633
upperneck 6.06165 -0.232198 -4.39284
head 3.12251 -0.16699 -2.34086
rclavicle -2.13694e-015 1.11319e-014
rhumerus 20.7504 -5.57451 -64.9286
rradius 67.5701
rwrist 21.3534
rhand 23.1705 -24.3647
rfingers 7.12502
rthumb 47.4764 -46.8182
lclavicle -2.13694e-015 1.11319e-014
lhumerus 21.0669 0.516722 60.6167
lradius 73.6515
lwrist -6.13627
lhand 27.0964 32.6936
lfingers 7.12502
lthumb 51.0785 53.331
rfemur 2.9102 -12.3616 11.2629
rtibia 54.1229
rfoot -32.1028 -9.84459
rtoes -12.9159
lfemur 1.70084 11.8611 1.53709
ltibia 53.0447
lfoot -35.9139 -8.46513
ltoes -13.1886
342
root -14.3433 15.9699 -2.26243 104.119 -85.3047 -122.418
lowerback 12.8378 0.169098 0.85562
upperback 3.15323 0.239369 0.774189
thorax -3.8837 0.0563601 0.291059
lowerneck -6.5726 -0.0622558 4.91948
upperneck 6.08429 -0.240491 -4.40267
head 3.13878 -0.172258 -2.34246
rclavicle 1.14301e-015 1.11319e-014
rhumerus 20.7597 -5.5022 -64.9014
rradius 67.5943
rwrist 21.2875
rhand 23.2048 -24.387
rfingers 7.12502
rthumb 47.508 -46.8261
lclavicle 1.14301e-015 1.11319e-014
lhumerus 21.1625 0.50823 60.6689
lradius 73.5969
lwrist -6.14724
lhand 27.1038 32.6802
lfingers 7.12502
lthumb 51.0853 53.3139
rfemur 2.92601 -12.3069 11.3134
rtibia 54.1154
rfoot -32.1281 -9.89304
rtoes -12.9413
lfemur 1.71206 11.8596 1.55995
ltibia 53.04
lfoot -35.9145 -8.47671
ltoes -13.1112
